<svg width="325" height="290" viewBox="0 0 325 290" fill="none" xmlns="http://www.w3.org/2000/svg">
<path d="M87.8278 26.7376C89.1449 23.4128 91.9848 21.4418 94.1687 22.3316C96.3525 23.2214 97.0565 26.642 95.7395 29.9668C95.2318 31.3016 94.4033 32.488 93.3162 33.4257L87.5501 47.4331L80.8118 44.424L87.21 30.9332C87.0664 29.4932 87.2771 28.0532 87.8231 26.7329L87.8278 26.7376Z" fill="#A0616A"/>
<path d="M63.6667 116.165C63.6667 116.165 53.9975 111.486 54.668 108.128C55.3384 104.764 84.1451 33.1434 84.1451 33.1434L97.4828 41.8981L63.6667 116.169V116.165Z" fill="#E6E6E6"/>
<path d="M208.691 290H116.203C102.751 290 91.8076 279.069 91.8076 265.63V24.3696C91.8076 10.9314 102.751 0 116.203 0H208.691C222.144 0 233.087 10.9314 233.087 24.3696V265.63C233.087 279.069 222.144 290 208.691 290Z" fill="#D7D7D8"/>
<path d="M208.758 283.403H116.136C106.18 283.403 98.0766 275.308 98.0766 265.363V24.1639C98.0766 14.218 106.18 6.12347 116.136 6.12347H208.758C218.715 6.12347 226.818 14.218 226.818 24.1639V265.363C226.818 275.308 218.715 283.403 208.758 283.403Z" fill="black"/>
<path d="M175.546 22.1785H149.354C145.896 22.1785 143.085 19.3703 143.085 15.9163C143.085 12.4622 145.896 9.65405 149.354 9.65405H175.546C179.003 9.65405 181.815 12.4622 181.815 15.9163C181.815 19.3703 179.003 22.1785 175.546 22.1785Z" fill="#D7D7D8"/>
<path d="M206.225 193.541H118.675C114.713 193.541 111.501 196.748 111.501 200.705C111.501 204.661 114.713 207.869 118.675 207.869H206.225C210.187 207.869 213.399 204.661 213.399 200.705C213.399 196.748 210.187 193.541 206.225 193.541Z" fill="#D7D7D8"/>
<path d="M143.837 181.633H114.867C114.177 181.633 113.617 182.192 113.617 182.882C113.617 183.572 114.177 184.131 114.867 184.131H143.837C144.527 184.131 145.087 183.572 145.087 182.882C145.087 182.192 144.527 181.633 143.837 181.633Z" fill="#D7D7D8"/>
<path d="M257.631 59.0343C257.631 59.0343 247.756 60.149 247.119 75.4194C246.588 88.1448 245.505 95.2395 250.687 97.8946C252.54 98.8418 254.719 98.9279 256.697 98.2773L277.856 91.3262C277.856 91.3262 278.177 68.4157 270.849 62.8519C263.522 57.2834 257.631 59.0343 257.631 59.0343Z" fill="#2F2E41"/>
<path d="M269.298 94.1391L258.589 97.6553V82.2605H268.301L269.298 94.1391Z" fill="#FFB6B6"/>
<path d="M236.564 181.547C235.984 185.073 233.628 187.604 231.305 187.197C228.983 186.79 227.565 183.6 228.149 180.069C228.36 178.658 228.92 177.318 229.782 176.175L232.436 161.263L239.658 162.775L236.272 177.313C236.717 178.691 236.818 180.141 236.564 181.547Z" fill="#FFB6B6"/>
<path d="M294.939 179.835C295.652 183.336 294.345 186.537 292.027 186.982C289.709 187.427 287.252 184.944 286.543 181.442C286.242 180.045 286.289 178.6 286.682 177.222L283.861 162.34L291.15 161.187L293.157 175.979C294.062 177.108 294.67 178.428 294.939 179.835Z" fill="#FFB6B6"/>
<path d="M265.27 266.501H255.241V280.714H265.27V266.501Z" fill="#FFB6B6"/>
<path d="M245.476 289.321C244.423 289.321 243.484 289.297 242.775 289.23C240.113 288.986 237.57 287.02 236.291 285.871C235.716 285.355 235.534 284.532 235.831 283.824C236.047 283.317 236.473 282.934 237.005 282.786L244.045 280.776L255.443 273.093L255.572 273.323C255.62 273.409 256.741 275.423 257.114 276.782C257.258 277.299 257.219 277.729 257.004 278.064C256.855 278.294 256.645 278.428 256.477 278.504C256.683 278.719 257.33 279.159 259.322 279.475C262.229 279.934 262.842 276.925 262.866 276.801L262.885 276.701L262.971 276.643C264.355 275.753 265.208 275.347 265.5 275.433C265.682 275.485 265.988 275.581 266.817 283.776C266.898 284.034 267.478 285.919 267.085 287.723C266.659 289.684 258.077 289.01 256.357 288.857C256.309 288.861 249.883 289.321 245.481 289.321H245.476Z" fill="#2F2E41"/>
<path d="M293.823 255.337L285.314 260.638L292.844 272.698L301.353 267.397L293.823 255.337Z" fill="#FFB6B6"/>
<path d="M282.525 287.374C281.347 287.374 280.265 287.23 279.494 287.096C278.737 286.962 278.143 286.359 278.019 285.603C277.932 285.058 278.09 284.508 278.464 284.101L283.373 278.676L288.976 266.133L289.206 266.257C289.292 266.305 291.308 267.42 292.348 268.376C292.745 268.74 292.941 269.127 292.932 269.525C292.927 269.802 292.822 270.022 292.716 270.18C293.004 270.256 293.784 270.285 295.643 269.501C298.353 268.357 297.28 265.477 297.233 265.358L297.194 265.262L297.237 265.171C297.941 263.683 298.444 262.889 298.741 262.808C298.928 262.755 299.234 262.674 304.277 269.194C304.483 269.367 305.973 270.663 306.595 272.4C307.271 274.289 299.632 278.255 298.095 279.03C298.047 279.069 290.054 284.872 286.768 286.522C285.466 287.177 283.924 287.378 282.52 287.378L282.525 287.374Z" fill="#2F2E41"/>
<path d="M272.655 147.643H244.576L242.028 173.735L253.177 270.142H267.511L261.779 214.461L285.03 264.731L297.769 255.823L279.613 208.892C279.613 208.892 286.098 168.009 281.002 157.823C275.907 147.643 272.655 147.643 272.655 147.643Z" fill="#2F2E41"/>
<path d="M286.62 149.236H237.891L255.409 91.6467H274.839L286.62 149.236Z" fill="#1D1B20"/>
<path d="M258.474 91.6562C258.474 91.6562 246.372 91.3357 245.098 94.5218C243.824 97.7032 228.853 173.429 228.853 173.429H238.729L258.479 91.6562H258.474Z" fill="#1D1B20"/>
<path d="M266.348 91.7232C266.348 91.7232 277.008 90.3741 278.282 93.5555C279.556 96.7368 294.527 172.462 294.527 172.462H284.652L266.348 91.7232Z" fill="#1D1B20"/>
<path d="M259.916 86.523C265.809 86.523 270.586 81.751 270.586 75.8643C270.586 69.9777 265.809 65.2056 259.916 65.2056C254.023 65.2056 249.246 69.9777 249.246 75.8643C249.246 81.751 254.023 86.523 259.916 86.523Z" fill="#FFB6B6"/>
<path d="M256.994 63.0098C256.994 63.0098 251.123 86.8292 257.65 97.9615L248.455 96.0097C248.455 96.0097 244.892 69.9418 252.057 65.2008L256.994 63.005V63.0098Z" fill="#2F2E41"/>
<path d="M325 288.751C325 289.148 324.679 289.469 324.282 289.469H0.71837C0.320872 289.469 0 289.148 0 288.751C0 288.354 0.320872 288.034 0.71837 288.034H324.282C324.679 288.034 325 288.354 325 288.751Z" fill="#2E2E41"/>
<path d="M55.1229 83.5905L67.3879 87.6186V69.98H56.258L55.1229 83.5905Z" fill="#A0616A"/>
<path d="M65.8697 74.8597C72.6196 74.8597 78.0916 69.3937 78.0916 62.651C78.0916 55.9083 72.6196 50.4423 65.8697 50.4423C59.1197 50.4423 53.6478 55.9083 53.6478 62.651C53.6478 69.3937 59.1197 74.8597 65.8697 74.8597Z" fill="#A0616A"/>
<path d="M62.7568 63.6078L64.4425 65.6505L67.4884 60.3212C67.4884 60.3212 71.3772 60.5221 71.3772 57.6374C71.3772 54.7526 74.9451 54.6713 74.9451 54.6713C74.9451 54.6713 79.9976 45.8592 69.5334 48.1794C69.5334 48.1794 62.2731 43.2137 58.6668 47.4571C58.6668 47.4571 47.5992 53.0256 50.7648 62.718L56.028 72.7117L57.2205 70.4489C57.2205 70.4489 56.4974 60.9527 62.7568 63.5982V63.6078Z" fill="#2F2E41"/>
<path d="M51.4401 280.867H61.4685V266.654H51.4401V280.867Z" fill="#A0616A"/>
<path d="M60.3622 289.01C58.6477 289.163 50.0656 289.842 49.6345 287.876C49.2418 286.072 49.8213 284.187 49.9027 283.929C50.7265 275.729 51.033 275.638 51.2198 275.586C51.5119 275.5 52.3644 275.906 53.7484 276.796L53.8346 276.854L53.8538 276.954C53.8777 277.083 54.4907 280.092 57.3977 279.628C59.39 279.313 60.0365 278.872 60.2425 278.657C60.0749 278.581 59.8641 278.447 59.7157 278.217C59.5002 277.882 59.4618 277.452 59.6055 276.935C59.9791 275.571 61.0997 273.557 61.1476 273.476L61.2769 273.246L72.6751 280.93L79.7151 282.939C80.2467 283.092 80.6729 283.47 80.8884 283.977C81.1853 284.685 81.0034 285.508 80.4287 286.024C79.15 287.173 76.6117 289.139 73.9442 289.383C73.2354 289.45 72.2967 289.474 71.2431 289.474C66.8419 289.474 60.4149 289.019 60.367 289.01H60.3622Z" fill="#2F2E41"/>
<path d="M74.2794 144.117L47.9727 142.773C47.9727 142.773 43.9403 158.044 49.0359 173.955L49.6489 269.773H64.5144L78.5274 170.932L74.2794 144.117Z" fill="#2F2E41"/>
<path d="M69.8399 80.2034L55.4007 72.549C55.4007 72.549 39.8408 95.2633 41.9911 107.568C44.1462 119.872 47.9679 142.778 47.9679 142.778L79.8204 144.122L74.2603 99.014L69.8399 80.2034Z" fill="#E6E6E6"/>
<path d="M58.5759 280.867H68.6043V266.654H58.5759V280.867Z" fill="#A0616A"/>
<path d="M67.498 289.01C65.7835 289.163 57.2014 289.842 56.7704 287.876C56.3776 286.072 56.9571 284.187 57.0385 283.929C57.8623 275.729 58.1688 275.638 58.3556 275.586C58.6477 275.5 59.5002 275.906 60.8842 276.796L60.9704 276.854L60.9896 276.954C61.0135 277.083 61.6265 280.092 64.5335 279.628C66.5258 279.313 67.1723 278.872 67.3783 278.657C67.2107 278.581 66.9999 278.447 66.8515 278.217C66.636 277.882 66.5976 277.452 66.7413 276.935C67.1149 275.571 68.2355 273.557 68.2834 273.476L68.4127 273.246L79.8109 280.93L86.8509 282.939C87.3825 283.092 87.8087 283.47 88.0242 283.977C88.3211 284.685 88.1392 285.508 87.5645 286.024C86.2858 287.173 83.7475 289.139 81.08 289.383C80.3712 289.45 79.4325 289.474 78.3789 289.474C73.9777 289.474 67.5507 289.019 67.5028 289.01H67.498Z" fill="#2F2E41"/>
<path d="M79.8204 144.117L47.9679 142.773C47.9679 142.773 43.9355 158.044 49.0311 173.955L55.1899 269.773H70.0554L84.0684 170.932L79.8204 144.117Z" fill="#2F2E41"/>
<path d="M92.0567 169.138C93.23 172.515 92.3632 175.859 90.1267 176.61C87.8901 177.356 85.1268 175.228 83.9535 171.845C83.465 170.501 83.3213 169.061 83.532 167.645L78.7573 153.269L85.826 151.159L89.7866 165.554C90.8355 166.554 91.6161 167.784 92.0615 169.138H92.0567Z" fill="#A0616A"/>
<path d="M51.9812 85.6093C51.9812 85.6093 62.364 82.8537 64.0546 85.8389C65.7404 88.8241 90.6678 161.885 90.6678 161.885L74.8445 163.942L51.986 85.6093H51.9812Z" fill="#E6E6E6"/>
<path fill-rule="evenodd" clip-rule="evenodd" d="M130.608 91.289C130.608 88.5772 132.806 86.3789 135.518 86.3789H141.872C144.584 86.3789 146.782 88.5772 146.782 91.289V97.6433C146.782 100.355 144.584 102.553 141.872 102.553H135.518C132.806 102.553 130.608 100.355 130.608 97.6433V91.289ZM141.872 82.3353H135.518C130.573 82.3353 126.564 86.344 126.564 91.289V97.6433C126.564 102.588 130.573 106.597 135.518 106.597H141.872C146.817 106.597 150.826 102.588 150.826 97.6433V91.289C150.826 86.344 146.817 82.3353 141.872 82.3353ZM150.826 139.812C150.826 134.867 146.817 130.859 141.872 130.859H135.518C130.573 130.859 126.564 134.867 126.564 139.812V146.167C126.564 151.112 130.573 155.121 135.518 155.121H141.872C146.817 155.121 150.826 151.112 150.826 146.167V139.812ZM130.608 139.812C130.608 137.101 132.806 134.902 135.518 134.902H141.872C144.584 134.902 146.782 137.101 146.782 139.812V146.167C146.782 148.879 144.584 151.077 141.872 151.077H135.518C132.806 151.077 130.608 148.879 130.608 146.167V139.812ZM190.396 82.3353H184.041C179.096 82.3353 175.088 86.344 175.088 91.289V97.6433C175.088 102.588 179.096 106.597 184.041 106.597H190.396C195.341 106.597 199.349 102.588 199.349 97.6433V91.289C199.349 86.344 195.341 82.3353 190.396 82.3353ZM179.131 91.289C179.131 88.5772 181.33 86.3789 184.041 86.3789H190.396C193.107 86.3789 195.306 88.5772 195.306 91.289V97.6433C195.306 100.355 193.107 102.553 190.396 102.553H184.041C181.33 102.553 179.131 100.355 179.131 97.6433V91.289ZM167 149.055V151.077H164.979C163.862 151.077 162.957 151.982 162.957 153.099C162.957 154.215 163.862 155.121 164.979 155.121H173.066C174.182 155.121 175.088 154.215 175.088 153.099C175.088 151.982 174.182 151.077 173.066 151.077H171.044V149.055C171.044 147.938 170.139 147.033 169.022 147.033C167.906 147.033 167 147.938 167 149.055ZM191.262 120.75V118.728H197.328C198.444 118.728 199.349 117.823 199.349 116.706V112.662C199.349 111.546 198.444 110.641 197.328 110.641C196.211 110.641 195.306 111.546 195.306 112.662V114.684H191.262V112.662C191.262 111.546 190.357 110.641 189.24 110.641C188.124 110.641 187.219 111.546 187.219 112.662V120.75C187.219 121.866 188.124 122.772 189.24 122.772C190.357 122.772 191.262 121.866 191.262 120.75ZM140.717 90.4225H136.673C135.557 90.4225 134.651 91.3277 134.651 92.4443V96.488C134.651 97.6046 135.557 98.5098 136.673 98.5098H140.717C141.833 98.5098 142.739 97.6046 142.739 96.488V92.4443C142.739 91.3277 141.833 90.4225 140.717 90.4225ZM142.739 140.968C142.739 139.851 141.833 138.946 140.717 138.946H136.673C135.557 138.946 134.651 139.851 134.651 140.968V145.011C134.651 146.128 135.557 147.033 136.673 147.033H140.717C141.833 147.033 142.739 146.128 142.739 145.011V140.968ZM189.24 90.4225H185.197C184.08 90.4225 183.175 91.3277 183.175 92.4443V96.488C183.175 97.6046 184.08 98.5098 185.197 98.5098H189.24C190.357 98.5098 191.262 97.6046 191.262 96.488V92.4443C191.262 91.3277 190.357 90.4225 189.24 90.4225ZM167 86.3789V90.4225H164.979C163.862 90.4225 162.957 91.3277 162.957 92.4443C162.957 93.5609 163.862 94.4661 164.979 94.4661H169.022C170.139 94.4661 171.044 93.5609 171.044 92.4443V84.3571C171.044 83.2405 170.139 82.3353 169.022 82.3353H156.891C155.775 82.3353 154.87 83.2405 154.87 84.3571V92.4443C154.87 93.5609 155.775 94.4661 156.891 94.4661C158.008 94.4661 158.913 93.5609 158.913 92.4443V86.3789H167ZM170.183 102.187C167.938 101.196 165.454 100.646 162.842 100.646C160.286 100.646 157.853 101.173 155.646 102.124C155.173 101.754 154.87 101.178 154.87 100.532C154.87 99.415 155.775 98.5098 156.891 98.5098H169.022C170.139 98.5098 171.044 99.415 171.044 100.532C171.044 101.216 170.704 101.822 170.183 102.187ZM179.497 111.502C179.863 110.981 180.468 110.641 181.153 110.641C182.27 110.641 183.175 111.546 183.175 112.662V120.75C183.175 121.866 182.27 122.772 181.153 122.772C180.972 122.772 180.796 122.748 180.628 122.703C180.897 121.459 181.039 120.167 181.039 118.842C181.039 116.23 180.488 113.747 179.497 111.502ZM175.088 132.302C176.549 130.972 177.792 129.407 178.759 127.668C178.993 127.998 179.131 128.401 179.131 128.837V134.902H189.24C190.357 134.902 191.262 135.808 191.262 136.924C191.262 138.041 190.357 138.946 189.24 138.946H177.109C175.993 138.946 175.088 138.041 175.088 136.924V132.302ZM158.913 153.099V142.99H169.022C170.139 142.99 171.044 142.084 171.044 140.968C171.044 139.851 170.139 138.946 169.022 138.946H156.891C155.775 138.946 154.87 139.851 154.87 140.968V153.099C154.87 154.215 155.775 155.121 156.891 155.121C158.008 155.121 158.913 154.215 158.913 153.099ZM136.673 114.684H138.695V124.793C138.695 125.91 139.6 126.815 140.717 126.815C141.833 126.815 142.739 125.91 142.739 124.793V112.662C142.739 111.546 141.833 110.641 140.717 110.641H136.673C135.557 110.641 134.651 111.546 134.651 112.662C134.651 113.779 135.557 114.684 136.673 114.684ZM195.306 124.793V126.815H185.197C184.08 126.815 183.175 127.72 183.175 128.837C183.175 129.954 184.08 130.859 185.197 130.859H197.328C198.444 130.859 199.349 129.954 199.349 128.837V124.793C199.349 123.677 198.444 122.772 197.328 122.772C196.211 122.772 195.306 123.677 195.306 124.793ZM195.306 136.924V151.077H181.153C180.036 151.077 179.131 151.982 179.131 153.099C179.131 154.215 180.036 155.121 181.153 155.121H197.328C198.444 155.121 199.349 154.215 199.349 153.099V136.924C199.349 135.808 198.444 134.902 197.328 134.902C196.211 134.902 195.306 135.808 195.306 136.924ZM175.088 145.011C175.088 146.128 175.993 147.033 177.109 147.033H189.24C190.357 147.033 191.262 146.128 191.262 145.011C191.262 143.895 190.357 142.99 189.24 142.99H177.109C175.993 142.99 175.088 143.895 175.088 145.011ZM132.63 122.772H130.608V112.662C130.608 111.546 129.703 110.641 128.586 110.641C127.469 110.641 126.564 111.546 126.564 112.662V124.793C126.564 125.91 127.469 126.815 128.586 126.815H132.63C133.746 126.815 134.651 125.91 134.651 124.793C134.651 123.677 133.746 122.772 132.63 122.772Z" fill="white"/>
<path d="M166.107 120.808C165.985 120.988 165.847 121.16 165.692 121.323C164.187 122.906 161.684 122.969 160.101 121.464C158.518 119.958 158.455 117.455 159.96 115.872C161.466 114.289 163.969 114.226 165.552 115.731C165.715 115.886 165.861 116.052 165.992 116.225" stroke="white" stroke-width="2" stroke-linecap="round"/>
<path d="M151.513 118.728H153.801" stroke="white" stroke-width="2" stroke-linecap="round"/>
<path d="M172.112 118.728H174.401" stroke="white" stroke-width="2" stroke-linecap="round"/>
<path d="M162.957 109.573V107.284" stroke="white" stroke-width="2" stroke-linecap="round"/>
<path d="M162.957 130.172V127.883" stroke="white" stroke-width="2" stroke-linecap="round"/>
<path d="M158.379 110.797C159.726 110.018 161.289 109.572 162.957 109.572C168.013 109.572 172.112 113.671 172.112 118.728C172.112 123.784 168.013 127.883 162.957 127.883C157.9 127.883 153.801 123.784 153.801 118.728C153.801 117.06 154.247 115.497 155.026 114.15" stroke="white" stroke-width="2" stroke-linecap="round"/>
<path d="M111 70.233C111 69.3755 111.341 68.5532 111.947 67.9469C112.553 67.3406 113.376 67 114.233 67H133.631C134.488 67 135.311 67.3406 135.917 67.9469C136.523 68.5532 136.864 69.3755 136.864 70.233C136.864 71.0904 136.523 71.9128 135.917 72.5191C135.311 73.1254 134.488 73.466 133.631 73.466C124.703 73.466 117.466 80.7033 117.466 89.6309C117.466 90.4884 117.125 91.3107 116.519 91.917C115.913 92.5233 115.09 92.8639 114.233 92.8639C113.376 92.8639 112.553 92.5233 111.947 91.917C111.341 91.3107 111 90.4884 111 89.6309V70.233ZM188.592 70.233C188.592 69.3755 188.932 68.5532 189.539 67.9469C190.145 67.3406 190.967 67 191.825 67H211.223C212.08 67 212.903 67.3406 213.509 67.9469C214.115 68.5532 214.456 69.3755 214.456 70.233V89.6309C214.456 90.4884 214.115 91.3107 213.509 91.917C212.903 92.5233 212.08 92.8639 211.223 92.8639C210.365 92.8639 209.543 92.5233 208.937 91.917C208.33 91.3107 207.99 90.4884 207.99 89.6309C207.99 80.7033 200.752 73.466 191.825 73.466C190.967 73.466 190.145 73.1254 189.539 72.5191C188.932 71.9128 188.592 71.0904 188.592 70.233ZM114.233 144.592C115.09 144.592 115.913 144.932 116.519 145.539C117.125 146.145 117.466 146.967 117.466 147.825C117.466 156.752 124.703 163.99 133.631 163.99C134.488 163.99 135.311 164.33 135.917 164.937C136.523 165.543 136.864 166.365 136.864 167.223C136.864 168.08 136.523 168.903 135.917 169.509C135.311 170.115 134.488 170.456 133.631 170.456H114.233C113.376 170.456 112.553 170.115 111.947 169.509C111.341 168.903 111 168.08 111 167.223V147.825C111 146.967 111.341 146.145 111.947 145.539C112.553 144.932 113.376 144.592 114.233 144.592ZM211.223 144.592C212.08 144.592 212.903 144.932 213.509 145.539C214.115 146.145 214.456 146.967 214.456 147.825V167.223C214.456 168.08 214.115 168.903 213.509 169.509C212.903 170.115 212.08 170.456 211.223 170.456H191.825C190.967 170.456 190.145 170.115 189.539 169.509C188.932 168.903 188.592 168.08 188.592 167.223C188.592 166.365 188.932 165.543 189.539 164.937C190.145 164.33 190.967 163.99 191.825 163.99C200.752 163.99 207.99 156.752 207.99 147.825C207.99 146.967 208.33 146.145 208.937 145.539C209.543 144.932 210.365 144.592 211.223 144.592Z" fill="white"/>
</svg>
