<svg width="22" height="22" viewBox="0 0 22 22" fill="none" xmlns="http://www.w3.org/2000/svg">
<g clip-path="url(#clip0_186_136)">
<path fill-rule="evenodd" clip-rule="evenodd" d="M8.51848 1.18511C8.69039 1.01321 8.92355 0.916626 9.16667 0.916626H16.5C18.0188 0.916626 19.25 2.14785 19.25 3.66663V8.24996C19.25 8.75622 18.8396 9.16663 18.3333 9.16663C17.8271 9.16663 17.4167 8.75622 17.4167 8.24996V3.66663C17.4167 3.16037 17.0063 2.74996 16.5 2.74996H10.0833V7.33329C10.0833 7.83955 9.67294 8.24996 9.16667 8.24996H4.58333V18.3333C4.58333 18.8396 4.99374 19.25 5.5 19.25H6.41667C6.92292 19.25 7.33333 19.6604 7.33333 20.1666C7.33333 20.6729 6.92292 21.0833 6.41667 21.0833H5.5C3.98122 21.0833 2.75 19.8521 2.75 18.3333V7.33329C2.75 7.09017 2.84658 6.85702 3.01848 6.68511L8.51848 1.18511ZM5.87969 6.41663H8.25V4.04632L5.87969 6.41663ZM17.4167 11C17.9229 11 18.3333 11.4104 18.3333 11.9166V17.4166H21.0833C21.5896 17.4166 22 17.827 22 18.3333C22 18.8396 21.5896 19.25 21.0833 19.25H17.4167C16.9104 19.25 16.5 18.8396 16.5 18.3333V11.9166C16.5 11.4104 16.9104 11 17.4167 11ZM10.8292 11.3839C10.535 10.9718 9.96252 10.8765 9.55057 11.1707C9.13857 11.465 9.04316 12.0374 9.33744 12.4494L11.2485 15.125L9.33744 17.8005C9.04316 18.2125 9.13857 18.7849 9.55057 19.0792C9.96252 19.3734 10.535 19.2781 10.8292 18.8661L12.375 16.7021L13.9208 18.8661C14.215 19.2781 14.7875 19.3734 15.1994 19.0792C15.6115 18.7849 15.7068 18.2125 15.4126 17.8005L13.5015 15.125L15.4126 12.4494C15.7068 12.0374 15.6115 11.465 15.1994 11.1707C14.7875 10.8765 14.215 10.9718 13.9208 11.3839L12.375 13.5478L10.8292 11.3839Z" fill="white"/>
</g>
<defs>
<clipPath id="clip0_186_136">
<rect width="22" height="22" fill="white"/>
</clipPath>
</defs>
</svg>
