<svg width="17" height="22" viewBox="0 0 17 22" fill="none" xmlns="http://www.w3.org/2000/svg">
<path fill-rule="evenodd" clip-rule="evenodd" d="M8.15004 21.8886C8.15004 21.8886 8.15047 21.8888 8.5 21.3892L8.15004 21.8886ZM8.84996 21.8886L8.85214 21.887L8.85767 21.8831L8.87698 21.8691C8.89355 21.8572 8.91741 21.8398 8.94801 21.8172C9.00921 21.7719 9.09755 21.7056 9.2092 21.6193C9.43239 21.4465 9.74895 21.1932 10.1278 20.8672C10.8847 20.2158 11.8944 19.2703 12.9057 18.0927C14.9138 15.7546 17 12.4176 17 8.60266C17 6.32227 16.1053 4.13453 14.5117 2.52093C12.9179 0.907231 10.7555 0 8.5 0C6.24452 0 4.08213 0.907231 2.48831 2.52093C0.894686 4.13453 0 6.32227 0 8.60266C0 12.4176 2.0862 15.7546 4.09427 18.0927C5.10559 19.2703 6.11532 20.2158 6.87219 20.8672C7.25105 21.1932 7.56761 21.4465 7.7908 21.6193C7.90245 21.7056 7.99079 21.7719 8.05199 21.8172C8.08259 21.8398 8.10645 21.8572 8.12303 21.8691L8.14233 21.8831L8.14786 21.887L8.15004 21.8886C8.35969 22.0371 8.64031 22.0371 8.84996 21.8886ZM8.5 21.3892L8.84996 21.8886C8.84996 21.8886 8.84953 21.8888 8.5 21.3892ZM11.5357 8.55567C11.5357 10.2432 10.1766 11.6113 8.5 11.6113C6.82344 11.6113 5.46429 10.2432 5.46429 8.55567C5.46429 6.86812 6.82344 5.50007 8.5 5.50007C10.1766 5.50007 11.5357 6.86812 11.5357 8.55567Z" fill="white"/>
</svg>
