<svg width="52" height="67" viewBox="0 0 52 67" fill="none" xmlns="http://www.w3.org/2000/svg">
<path fill-rule="evenodd" clip-rule="evenodd" d="M24.9295 66.6607C24.9295 66.6607 24.9308 66.6614 26 65.1397L24.9295 66.6607ZM27.0705 66.6607L27.0771 66.6558L27.094 66.6439L27.1531 66.6015C27.2038 66.565 27.2768 66.5121 27.3704 66.4433C27.5576 66.3054 27.8278 66.1034 28.1693 65.8405C28.852 65.3143 29.8203 64.5431 30.9792 63.5502C33.2943 61.5664 36.3829 58.6868 39.4764 55.1006C45.6187 47.9799 52 37.8173 52 26.199C52 19.2542 49.2633 12.5915 44.3887 7.67737C39.5135 2.76293 32.8991 0 26 0C19.1009 0 12.4865 2.76293 7.61131 7.67737C2.73669 12.5915 0 19.2542 0 26.199C0 37.8173 6.38133 47.9799 12.5236 55.1006C15.6171 58.6868 18.7057 61.5664 21.0208 63.5502C22.1797 64.5431 23.148 65.3143 23.8307 65.8405C24.1722 66.1034 24.4424 66.3054 24.6296 66.4433C24.7232 66.5121 24.7962 66.565 24.8469 66.6015L24.906 66.6439L24.9229 66.6558L24.9295 66.6607C25.5708 67.1131 26.4292 67.1131 27.0705 66.6607ZM26 65.1397L27.0705 66.6607C27.0705 66.6607 27.0692 66.6614 26 65.1397ZM35.2857 26.0559C35.2857 31.1952 31.1283 35.3616 26 35.3616C20.8717 35.3616 16.7143 31.1952 16.7143 26.0559C16.7143 20.9166 20.8717 16.7502 26 16.7502C31.1283 16.7502 35.2857 20.9166 35.2857 26.0559Z" fill="black"/>
</svg>
