<svg width="30" height="30" viewBox="0 0 30 30" fill="none" xmlns="http://www.w3.org/2000/svg">
<path fill-rule="evenodd" clip-rule="evenodd" d="M5.68584 7.0433C5.68584 6.25694 6.32331 5.61947 7.10967 5.61947H8.95227C9.73863 5.61947 10.3761 6.25694 10.3761 7.0433V8.8859C10.3761 9.67226 9.73863 10.3097 8.95227 10.3097H7.10967C6.32331 10.3097 5.68584 9.67226 5.68584 8.8859V7.0433ZM8.95227 4.4469H7.10967C5.67572 4.4469 4.51327 5.60935 4.51327 7.0433V8.8859C4.51327 10.3199 5.67572 11.4823 7.10967 11.4823H8.95227C10.3862 11.4823 11.5487 10.3199 11.5487 8.8859V7.0433C11.5487 5.60935 10.3862 4.4469 8.95227 4.4469ZM11.5487 21.1141C11.5487 19.6801 10.3862 18.5177 8.95227 18.5177H7.10967C5.67572 18.5177 4.51327 19.6801 4.51327 21.1141V22.9567C4.51327 24.3906 5.67572 25.5531 7.10967 25.5531H8.95227C10.3862 25.5531 11.5487 24.3906 11.5487 22.9567V21.1141ZM5.68584 21.1141C5.68584 20.3277 6.32331 19.6903 7.10967 19.6903H8.95227C9.73863 19.6903 10.3761 20.3277 10.3761 21.1141V22.9567C10.3761 23.7431 9.73863 24.3805 8.95227 24.3805H7.10967C6.32331 24.3805 5.68584 23.7431 5.68584 22.9567V21.1141ZM23.0231 4.4469H21.1805C19.7465 4.4469 18.5841 5.60935 18.5841 7.0433V8.8859C18.5841 10.3199 19.7465 11.4823 21.1805 11.4823H23.0231C24.457 11.4823 25.6195 10.3199 25.6195 8.8859V7.0433C25.6195 5.60935 24.457 4.4469 23.0231 4.4469ZM19.7566 7.0433C19.7566 6.25694 20.3941 5.61947 21.1805 5.61947H23.0231C23.8094 5.61947 24.4469 6.25694 24.4469 7.0433V8.8859C24.4469 9.67226 23.8094 10.3097 23.0231 10.3097H21.1805C20.3941 10.3097 19.7566 9.67226 19.7566 8.8859V7.0433ZM16.2389 23.7942V24.3805H15.6527C15.3289 24.3805 15.0664 24.643 15.0664 24.9668C15.0664 25.2906 15.3289 25.5531 15.6527 25.5531H17.9978C18.3216 25.5531 18.5841 25.2906 18.5841 24.9668C18.5841 24.643 18.3216 24.3805 17.9978 24.3805H17.4115V23.7942C17.4115 23.4704 17.149 23.208 16.8252 23.208C16.5014 23.208 16.2389 23.4704 16.2389 23.7942ZM23.2743 15.5863V15H25.0332C25.357 15 25.6195 14.7375 25.6195 14.4137V13.2411C25.6195 12.9174 25.357 12.6549 25.0332 12.6549C24.7094 12.6549 24.4469 12.9174 24.4469 13.2411V13.8274H23.2743V13.2411C23.2743 12.9174 23.0118 12.6549 22.6881 12.6549C22.3643 12.6549 22.1018 12.9174 22.1018 13.2411V15.5863C22.1018 15.9101 22.3643 16.1726 22.6881 16.1726C23.0118 16.1726 23.2743 15.9101 23.2743 15.5863ZM8.61725 6.79203H7.44469C7.12089 6.79203 6.8584 7.05452 6.8584 7.37832V8.55088C6.8584 8.87468 7.12089 9.13717 7.44469 9.13717H8.61725C8.94105 9.13717 9.20354 8.87468 9.20354 8.55088V7.37832C9.20354 7.05452 8.94105 6.79203 8.61725 6.79203ZM9.20354 21.4491C9.20354 21.1253 8.94105 20.8628 8.61725 20.8628H7.44469C7.12089 20.8628 6.8584 21.1253 6.8584 21.4491V22.6217C6.8584 22.9455 7.12089 23.208 7.44469 23.208H8.61725C8.94105 23.208 9.20354 22.9455 9.20354 22.6217V21.4491ZM22.6881 6.79203H21.5155C21.1917 6.79203 20.9292 7.05452 20.9292 7.37832V8.55088C20.9292 8.87468 21.1917 9.13717 21.5155 9.13717H22.6881C23.0118 9.13717 23.2743 8.87468 23.2743 8.55088V7.37832C23.2743 7.05452 23.0118 6.79203 22.6881 6.79203ZM16.2389 5.61947V6.79203H15.6527C15.3289 6.79203 15.0664 7.05452 15.0664 7.37832C15.0664 7.70211 15.3289 7.9646 15.6527 7.9646H16.8252C17.149 7.9646 17.4115 7.70211 17.4115 7.37832V5.03318C17.4115 4.70939 17.149 4.4469 16.8252 4.4469H13.3075C12.9837 4.4469 12.7212 4.70939 12.7212 5.03318V7.37832C12.7212 7.70211 12.9837 7.9646 13.3075 7.9646C13.6313 7.9646 13.8938 7.70211 13.8938 7.37832V5.61947H16.2389ZM17.1618 10.2036C16.5107 9.91621 15.7906 9.75664 15.0332 9.75664C14.292 9.75664 13.5864 9.90947 12.9464 10.1853C12.8093 10.078 12.7212 9.91103 12.7212 9.72345C12.7212 9.39965 12.9837 9.13717 13.3075 9.13717H16.8252C17.149 9.13717 17.4115 9.39965 17.4115 9.72345C17.4115 9.92201 17.3128 10.0975 17.1618 10.2036ZM19.8628 12.9046C19.9688 12.7536 20.1444 12.6549 20.3429 12.6549C20.6667 12.6549 20.9292 12.9174 20.9292 13.2411V15.5863C20.9292 15.9101 20.6667 16.1726 20.3429 16.1726C20.2903 16.1726 20.2393 16.1656 20.1907 16.1526C20.2687 15.7918 20.3097 15.4173 20.3097 15.0332C20.3097 14.2758 20.1502 13.5557 19.8628 12.9046ZM18.5841 18.9362C19.0077 18.5505 19.3684 18.0968 19.6487 17.5923C19.7167 17.6881 19.7566 17.8051 19.7566 17.9314V19.6903H22.6881C23.0118 19.6903 23.2743 19.9528 23.2743 20.2765C23.2743 20.6003 23.0118 20.8628 22.6881 20.8628H19.1704C18.8466 20.8628 18.5841 20.6003 18.5841 20.2765V18.9362ZM13.8938 24.9668V22.0354H16.8252C17.149 22.0354 17.4115 21.7729 17.4115 21.4491C17.4115 21.1253 17.149 20.8628 16.8252 20.8628H13.3075C12.9837 20.8628 12.7212 21.1253 12.7212 21.4491V24.9668C12.7212 25.2906 12.9837 25.5531 13.3075 25.5531C13.6313 25.5531 13.8938 25.2906 13.8938 24.9668ZM7.44469 13.8274H8.03097V16.7588C8.03097 17.0826 8.29346 17.3451 8.61725 17.3451C8.94105 17.3451 9.20354 17.0826 9.20354 16.7588V13.2411C9.20354 12.9174 8.94105 12.6549 8.61725 12.6549H7.44469C7.12089 12.6549 6.8584 12.9174 6.8584 13.2411C6.8584 13.5649 7.12089 13.8274 7.44469 13.8274ZM24.4469 16.7588V17.3451H21.5155C21.1917 17.3451 20.9292 17.6076 20.9292 17.9314C20.9292 18.2552 21.1917 18.5177 21.5155 18.5177H25.0332C25.357 18.5177 25.6195 18.2552 25.6195 17.9314V16.7588C25.6195 16.4351 25.357 16.1726 25.0332 16.1726C24.7094 16.1726 24.4469 16.4351 24.4469 16.7588ZM24.4469 20.2765V24.3805H20.3429C20.0191 24.3805 19.7566 24.643 19.7566 24.9668C19.7566 25.2906 20.0191 25.5531 20.3429 25.5531H25.0332C25.357 25.5531 25.6195 25.2906 25.6195 24.9668V20.2765C25.6195 19.9528 25.357 19.6903 25.0332 19.6903C24.7094 19.6903 24.4469 19.9528 24.4469 20.2765ZM18.5841 22.6217C18.5841 22.9455 18.8466 23.208 19.1704 23.208H22.6881C23.0118 23.208 23.2743 22.9455 23.2743 22.6217C23.2743 22.2979 23.0118 22.0354 22.6881 22.0354H19.1704C18.8466 22.0354 18.5841 22.2979 18.5841 22.6217ZM6.27212 16.1726H5.68584V13.2411C5.68584 12.9174 5.42335 12.6549 5.09955 12.6549C4.77576 12.6549 4.51327 12.9174 4.51327 13.2411V16.7588C4.51327 17.0826 4.77576 17.3451 5.09955 17.3451H6.27212C6.59592 17.3451 6.8584 17.0826 6.8584 16.7588C6.8584 16.4351 6.59592 16.1726 6.27212 16.1726Z" fill="white"/>
<path d="M15.9799 15.6031C15.9446 15.6553 15.9046 15.7054 15.8597 15.7526C15.4231 16.2116 14.6972 16.2298 14.2382 15.7933C13.7792 15.3568 13.7609 14.6308 14.1975 14.1718C14.634 13.7128 15.3599 13.6945 15.8189 14.1311C15.8662 14.176 15.9087 14.2239 15.9465 14.2743" stroke="white" stroke-linecap="round"/>
<path d="M11.7478 15H12.4115" stroke="white" stroke-linecap="round"/>
<path d="M17.7212 15H18.385" stroke="white" stroke-linecap="round"/>
<path d="M15.0664 12.3451V11.6814" stroke="white" stroke-linecap="round"/>
<path d="M15.0664 18.3186V17.6549" stroke="white" stroke-linecap="round"/>
<path d="M13.7389 12.7003C14.1294 12.4744 14.5828 12.3451 15.0664 12.3451C16.5326 12.3451 17.7212 13.5337 17.7212 15C17.7212 16.4662 16.5326 17.6548 15.0664 17.6548C13.6001 17.6548 12.4115 16.4662 12.4115 15C12.4115 14.5164 12.5408 14.063 12.7667 13.6725" stroke="white" stroke-linecap="round"/>
<path d="M0 0.9375C0 0.68886 0.0987721 0.450403 0.274587 0.274587C0.450403 0.0987721 0.68886 0 0.9375 0L6.5625 0C6.81114 0 7.0496 0.0987721 7.22541 0.274587C7.40123 0.450403 7.5 0.68886 7.5 0.9375C7.5 1.18614 7.40123 1.4246 7.22541 1.60041C7.0496 1.77623 6.81114 1.875 6.5625 1.875V1.875C3.97367 1.875 1.875 3.97367 1.875 6.5625V6.5625C1.875 6.81114 1.77623 7.0496 1.60041 7.22541C1.4246 7.40123 1.18614 7.5 0.9375 7.5C0.68886 7.5 0.450403 7.40123 0.274587 7.22541C0.0987721 7.0496 0 6.81114 0 6.5625V0.9375ZM22.5 0.9375C22.5 0.68886 22.5988 0.450403 22.7746 0.274587C22.9504 0.0987721 23.1889 0 23.4375 0L29.0625 0C29.3111 0 29.5496 0.0987721 29.7254 0.274587C29.9012 0.450403 30 0.68886 30 0.9375V6.5625C30 6.81114 29.9012 7.0496 29.7254 7.22541C29.5496 7.40123 29.3111 7.5 29.0625 7.5C28.8139 7.5 28.5754 7.40123 28.3996 7.22541C28.2238 7.0496 28.125 6.81114 28.125 6.5625V6.5625C28.125 3.97367 26.0263 1.875 23.4375 1.875V1.875C23.1889 1.875 22.9504 1.77623 22.7746 1.60041C22.5988 1.4246 22.5 1.18614 22.5 0.9375ZM0.9375 22.5C1.18614 22.5 1.4246 22.5988 1.60041 22.7746C1.77623 22.9504 1.875 23.1889 1.875 23.4375V23.4375C1.875 26.0263 3.97367 28.125 6.5625 28.125V28.125C6.81114 28.125 7.0496 28.2238 7.22541 28.3996C7.40123 28.5754 7.5 28.8139 7.5 29.0625C7.5 29.3111 7.40123 29.5496 7.22541 29.7254C7.0496 29.9012 6.81114 30 6.5625 30H0.9375C0.68886 30 0.450403 29.9012 0.274587 29.7254C0.0987721 29.5496 0 29.3111 0 29.0625V23.4375C0 23.1889 0.0987721 22.9504 0.274587 22.7746C0.450403 22.5988 0.68886 22.5 0.9375 22.5ZM29.0625 22.5C29.3111 22.5 29.5496 22.5988 29.7254 22.7746C29.9012 22.9504 30 23.1889 30 23.4375V29.0625C30 29.3111 29.9012 29.5496 29.7254 29.7254C29.5496 29.9012 29.3111 30 29.0625 30H23.4375C23.1889 30 22.9504 29.9012 22.7746 29.7254C22.5988 29.5496 22.5 29.3111 22.5 29.0625C22.5 28.8139 22.5988 28.5754 22.7746 28.3996C22.9504 28.2238 23.1889 28.125 23.4375 28.125V28.125C26.0263 28.125 28.125 26.0263 28.125 23.4375V23.4375C28.125 23.1889 28.2238 22.9504 28.3996 22.7746C28.5754 22.5988 28.8139 22.5 29.0625 22.5Z" fill="white"/>
</svg>
