<svg width="30" height="40" viewBox="0 0 30 40" fill="none" xmlns="http://www.w3.org/2000/svg">
<path fill-rule="evenodd" clip-rule="evenodd" d="M14.3824 39.7974C14.3824 39.7974 14.3832 39.7979 15 38.8894L14.3824 39.7974ZM15.6176 39.7974L15.6214 39.7945L15.6312 39.7874L15.6653 39.7621C15.6945 39.7403 15.7366 39.7087 15.7906 39.6676C15.8986 39.5853 16.0545 39.4647 16.2515 39.3077C16.6454 38.9936 17.204 38.5332 17.8726 37.9404C19.2083 36.756 20.9901 35.0369 22.7748 32.8959C26.3185 28.6447 30 22.5775 30 15.6412C30 11.495 28.4211 7.51732 25.6089 4.58351C22.7963 1.64951 18.9803 0 15 0C11.0197 0 7.20375 1.64951 4.39114 4.58351C1.57886 7.51732 0 11.495 0 15.6412C0 22.5775 3.68154 28.6447 7.22518 32.8959C9.00986 35.0369 10.7917 36.756 12.1274 37.9404C12.796 38.5332 13.3546 38.9936 13.7485 39.3077C13.9455 39.4647 14.1014 39.5853 14.2094 39.6676C14.2634 39.7087 14.3055 39.7403 14.3348 39.7621L14.3688 39.7874L14.3786 39.7945L14.3824 39.7974C14.7524 40.0675 15.2476 40.0675 15.6176 39.7974ZM15 38.8894L15.6176 39.7974C15.6176 39.7974 15.6168 39.7979 15 38.8894ZM20.3571 15.5558C20.3571 18.624 17.9586 21.1114 15 21.1114C12.0414 21.1114 9.64286 18.624 9.64286 15.5558C9.64286 12.4875 12.0414 10.0001 15 10.0001C17.9586 10.0001 20.3571 12.4875 20.3571 15.5558Z" fill="white"/>
</svg>
