<svg width="29" height="31" viewBox="0 0 29 31" fill="none" xmlns="http://www.w3.org/2000/svg">
<circle cx="14.5" cy="16.5" r="14.5" fill="white"/>
<path d="M15.336 8.672C17 8.672 18.336 9.128 19.344 10.04C20.368 10.936 20.88 12.176 20.88 13.76C20.88 15.328 20.376 16.528 19.368 17.36C18.36 18.176 17.024 18.584 15.36 18.584L15.264 20.432H12.312L12.192 16.352H13.272C14.664 16.352 15.736 16.168 16.488 15.8C17.24 15.432 17.616 14.76 17.616 13.784C17.616 13.08 17.408 12.52 16.992 12.104C16.592 11.688 16.04 11.48 15.336 11.48C14.6 11.48 14.024 11.68 13.608 12.08C13.208 12.48 13.008 13.032 13.008 13.736H9.84C9.824 12.76 10.032 11.888 10.464 11.12C10.896 10.352 11.528 9.752 12.36 9.32C13.208 8.888 14.2 8.672 15.336 8.672ZM13.776 26.168C13.168 26.168 12.664 25.984 12.264 25.616C11.88 25.232 11.688 24.76 11.688 24.2C11.688 23.64 11.88 23.176 12.264 22.808C12.664 22.424 13.168 22.232 13.776 22.232C14.368 22.232 14.856 22.424 15.24 22.808C15.624 23.176 15.816 23.64 15.816 24.2C15.816 24.76 15.624 25.232 15.24 25.616C14.856 25.984 14.368 26.168 13.776 26.168Z" fill="black"/>
</svg>
