<svg width="22" height="22" viewBox="0 0 22 22" fill="none" xmlns="http://www.w3.org/2000/svg">
<path fill-rule="evenodd" clip-rule="evenodd" d="M1.22222 2.70635C1.22222 1.88669 1.88669 1.22222 2.70635 1.22222H4.62698C5.44664 1.22222 6.11111 1.88669 6.11111 2.70635V4.62698C6.11111 5.44664 5.44664 6.11111 4.62698 6.11111H2.70635C1.88669 6.11111 1.22222 5.44664 1.22222 4.62698V2.70635ZM4.62698 0H2.70635C1.21167 0 0 1.21167 0 2.70635V4.62698C0 6.12166 1.21167 7.33333 2.70635 7.33333H4.62698C6.12166 7.33333 7.33333 6.12166 7.33333 4.62698V2.70635C7.33333 1.21167 6.12166 0 4.62698 0ZM4.62698 14.6667H2.70635C1.21167 14.6667 0 15.8783 0 17.373V19.2937C0 20.7883 1.21167 22 2.70635 22H4.62698C6.12166 22 7.33333 20.7883 7.33333 19.2937V17.373C7.33333 15.8783 6.12166 14.6667 4.62698 14.6667ZM1.22222 17.373C1.22222 16.5534 1.88669 15.8889 2.70635 15.8889H4.62698C5.44664 15.8889 6.11111 16.5534 6.11111 17.373V19.2937C6.11111 20.1133 5.44664 20.7778 4.62698 20.7778H2.70635C1.88669 20.7778 1.22222 20.1133 1.22222 19.2937V17.373ZM19.2937 0H17.373C15.8783 0 14.6667 1.21167 14.6667 2.70635V4.62698C14.6667 6.12166 15.8783 7.33333 17.373 7.33333H19.2937C20.7883 7.33333 22 6.12166 22 4.62698V2.70635C22 1.21167 20.7883 0 19.2937 0ZM15.8889 2.70635C15.8889 1.88669 16.5534 1.22222 17.373 1.22222H19.2937C20.1133 1.22222 20.7778 1.88669 20.7778 2.70635V4.62698C20.7778 5.44664 20.1133 6.11111 19.2937 6.11111H17.373C16.5534 6.11111 15.8889 5.44664 15.8889 4.62698V2.70635ZM12.2222 20.1667V20.7778H11.6111C11.2736 20.7778 11 21.0514 11 21.3889C11 21.7264 11.2736 22 11.6111 22H14.0556C14.3931 22 14.6667 21.7264 14.6667 21.3889C14.6667 21.0514 14.3931 20.7778 14.0556 20.7778H13.4444V20.1667C13.4444 19.8292 13.1708 19.5556 12.8333 19.5556C12.4958 19.5556 12.2222 19.8292 12.2222 20.1667ZM19.5556 11.6111V11H21.3889C21.7264 11 22 10.7264 22 10.3889V9.16667C22 8.82916 21.7264 8.55556 21.3889 8.55556C21.0514 8.55556 20.7778 8.82916 20.7778 9.16667V9.77778H19.5556V9.16667C19.5556 8.82916 19.282 8.55556 18.9444 8.55556C18.6069 8.55556 18.3333 8.82916 18.3333 9.16667V11.6111C18.3333 11.9486 18.6069 12.2222 18.9444 12.2222C19.282 12.2222 19.5556 11.9486 19.5556 11.6111ZM4.27778 2.44444H3.05556C2.71805 2.44444 2.44444 2.71805 2.44444 3.05556V4.27778C2.44444 4.61528 2.71805 4.88889 3.05556 4.88889H4.27778C4.61528 4.88889 4.88889 4.61528 4.88889 4.27778V3.05556C4.88889 2.71805 4.61528 2.44444 4.27778 2.44444ZM4.88889 17.7222C4.88889 17.3847 4.61528 17.1111 4.27778 17.1111H3.05556C2.71805 17.1111 2.44444 17.3847 2.44444 17.7222V18.9444C2.44444 19.282 2.71805 19.5556 3.05556 19.5556H4.27778C4.61528 19.5556 4.88889 19.282 4.88889 18.9444V17.7222ZM18.9444 2.44444H17.7222C17.3847 2.44444 17.1111 2.71805 17.1111 3.05556V4.27778C17.1111 4.61528 17.3847 4.88889 17.7222 4.88889H18.9444C19.282 4.88889 19.5556 4.61528 19.5556 4.27778V3.05556C19.5556 2.71805 19.282 2.44444 18.9444 2.44444ZM12.2222 1.22222V2.44444H11.6111C11.2736 2.44444 11 2.71805 11 3.05556C11 3.39306 11.2736 3.66667 11.6111 3.66667H12.8333C13.1708 3.66667 13.4444 3.39306 13.4444 3.05556V0.611111C13.4444 0.273604 13.1708 0 12.8333 0H9.16667C8.82916 0 8.55556 0.273604 8.55556 0.611111V3.05556C8.55556 3.39306 8.82916 3.66667 9.16667 3.66667C9.50417 3.66667 9.77778 3.39306 9.77778 3.05556V1.22222H12.2222ZM13.1842 6.00044C12.5055 5.70092 11.7549 5.5346 10.9655 5.5346C10.1929 5.5346 9.45743 5.69391 8.79029 5.98148C8.64739 5.86962 8.55556 5.69554 8.55556 5.5C8.55556 5.16249 8.82916 4.88889 9.16667 4.88889H12.8333C13.1708 4.88889 13.4444 5.16249 13.4444 5.5C13.4444 5.70696 13.3416 5.88989 13.1842 6.00044ZM15.9996 8.8158C16.1101 8.65842 16.2931 8.55556 16.5 8.55556C16.8375 8.55556 17.1111 8.82916 17.1111 9.16667V11.6111C17.1111 11.9486 16.8375 12.2222 16.5 12.2222C16.4452 12.2222 16.392 12.215 16.3415 12.2015C16.4227 11.8254 16.4655 11.435 16.4655 11.0346C16.4655 10.2451 16.2991 9.49446 15.9996 8.8158ZM14.6667 15.103C15.1083 14.701 15.4842 14.228 15.7764 13.7022C15.8472 13.8019 15.8889 13.9239 15.8889 14.0556V15.8889H18.9444C19.282 15.8889 19.5556 16.1625 19.5556 16.5C19.5556 16.8375 19.282 17.1111 18.9444 17.1111H15.2778C14.9403 17.1111 14.6667 16.8375 14.6667 16.5V15.103ZM9.77778 21.3889V18.3333H12.8333C13.1708 18.3333 13.4444 18.0597 13.4444 17.7222C13.4444 17.3847 13.1708 17.1111 12.8333 17.1111H9.16667C8.82916 17.1111 8.55556 17.3847 8.55556 17.7222V21.3889C8.55556 21.7264 8.82916 22 9.16667 22C9.50417 22 9.77778 21.7264 9.77778 21.3889ZM3.05556 9.77778H3.66667V12.8333C3.66667 13.1708 3.94027 13.4444 4.27778 13.4444C4.61528 13.4444 4.88889 13.1708 4.88889 12.8333V9.16667C4.88889 8.82916 4.61528 8.55556 4.27778 8.55556H3.05556C2.71805 8.55556 2.44444 8.82916 2.44444 9.16667C2.44444 9.50417 2.71805 9.77778 3.05556 9.77778ZM20.7778 12.8333V13.4444H17.7222C17.3847 13.4444 17.1111 13.718 17.1111 14.0556C17.1111 14.3931 17.3847 14.6667 17.7222 14.6667H21.3889C21.7264 14.6667 22 14.3931 22 14.0556V12.8333C22 12.4958 21.7264 12.2222 21.3889 12.2222C21.0514 12.2222 20.7778 12.4958 20.7778 12.8333ZM20.7778 16.5V20.7778H16.5C16.1625 20.7778 15.8889 21.0514 15.8889 21.3889C15.8889 21.7264 16.1625 22 16.5 22H21.3889C21.7264 22 22 21.7264 22 21.3889V16.5C22 16.1625 21.7264 15.8889 21.3889 15.8889C21.0514 15.8889 20.7778 16.1625 20.7778 16.5ZM14.6667 18.9444C14.6667 19.282 14.9403 19.5556 15.2778 19.5556H18.9444C19.282 19.5556 19.5556 19.282 19.5556 18.9444C19.5556 18.6069 19.282 18.3333 18.9444 18.3333H15.2778C14.9403 18.3333 14.6667 18.6069 14.6667 18.9444ZM1.83333 12.2222H1.22222V9.16667C1.22222 8.82916 0.948618 8.55556 0.611111 8.55556C0.273604 8.55556 0 8.82916 0 9.16667V12.8333C0 13.1708 0.273604 13.4444 0.611111 13.4444H1.83333C2.17084 13.4444 2.44444 13.1708 2.44444 12.8333C2.44444 12.4958 2.17084 12.2222 1.83333 12.2222Z" fill="white"/>
<path d="M11.9523 11.6289C11.9155 11.6834 11.8737 11.7355 11.8269 11.7847C11.3719 12.2632 10.6152 12.2822 10.1368 11.8271C9.65832 11.3721 9.63932 10.6155 10.0943 10.137C10.5493 9.65854 11.306 9.63953 11.7845 10.0945C11.8337 10.1413 11.878 10.1913 11.9175 10.2438" stroke="white" stroke-width="0.5" stroke-linecap="round"/>
<path d="M7.54095 11.0001H8.23278" stroke="white" stroke-width="0.5" stroke-linecap="round"/>
<path d="M13.7674 11.0001H14.4592" stroke="white" stroke-width="0.5" stroke-linecap="round"/>
<path d="M11.0001 8.23284V7.54102" stroke="white" stroke-width="0.5" stroke-linecap="round"/>
<path d="M11.0001 14.4592V13.7673" stroke="white" stroke-width="0.5" stroke-linecap="round"/>
<path d="M9.61642 8.603C10.0235 8.36755 10.496 8.23279 11.0001 8.23279C12.5284 8.23279 13.7674 9.47175 13.7674 11.0001C13.7674 12.5284 12.5284 13.7674 11.0001 13.7674C9.47173 13.7674 8.23277 12.5284 8.23277 11.0001C8.23277 10.4961 8.36753 10.0235 8.60299 9.61644" stroke="white" stroke-width="0.5" stroke-linecap="round"/>
</svg>
