<svg width="424" height="424" viewBox="0 0 424 424" fill="none" xmlns="http://www.w3.org/2000/svg">
<rect width="424" height="424" fill="black"/>
<path fill-rule="evenodd" clip-rule="evenodd" d="M70.6667 92.119C70.6667 80.2712 80.2712 70.6667 92.119 70.6667H119.881C131.729 70.6667 141.333 80.2712 141.333 92.119V119.881C141.333 131.729 131.729 141.333 119.881 141.333H92.119C80.2712 141.333 70.6667 131.729 70.6667 119.881V92.119ZM119.881 53H92.119C70.5142 53 53 70.5142 53 92.119V119.881C53 141.486 70.5142 159 92.119 159H119.881C141.486 159 159 141.486 159 119.881V92.119C159 70.5142 141.486 53 119.881 53ZM159 304.119C159 282.514 141.486 265 119.881 265H92.119C70.5142 265 53 282.514 53 304.119V331.881C53 353.486 70.5142 371 92.119 371H119.881C141.486 371 159 353.486 159 331.881V304.119ZM70.6667 304.119C70.6667 292.271 80.2712 282.667 92.119 282.667H119.881C131.729 282.667 141.333 292.271 141.333 304.119V331.881C141.333 343.729 131.729 353.333 119.881 353.333H92.119C80.2712 353.333 70.6667 343.729 70.6667 331.881V304.119ZM331.881 53H304.119C282.514 53 265 70.5142 265 92.119V119.881C265 141.486 282.514 159 304.119 159H331.881C353.486 159 371 141.486 371 119.881V92.119C371 70.5142 353.486 53 331.881 53ZM282.667 92.119C282.667 80.2712 292.271 70.6667 304.119 70.6667H331.881C343.729 70.6667 353.333 80.2712 353.333 92.119V119.881C353.333 131.729 343.729 141.333 331.881 141.333H304.119C292.271 141.333 282.667 131.729 282.667 119.881V92.119ZM229.667 344.5V353.333H220.833C215.955 353.333 212 357.288 212 362.167C212 367.045 215.955 371 220.833 371H256.167C261.045 371 265 367.045 265 362.167C265 357.288 261.045 353.333 256.167 353.333H247.333V344.5C247.333 339.621 243.379 335.667 238.5 335.667C233.621 335.667 229.667 339.621 229.667 344.5ZM335.667 220.833V212H362.167C367.045 212 371 208.045 371 203.167V185.5C371 180.621 367.045 176.667 362.167 176.667C357.288 176.667 353.333 180.621 353.333 185.5V194.333H335.667V185.5C335.667 180.621 331.712 176.667 326.833 176.667C321.955 176.667 318 180.621 318 185.5V220.833C318 225.712 321.955 229.667 326.833 229.667C331.712 229.667 335.667 225.712 335.667 220.833ZM114.833 88.3333H97.1667C92.2882 88.3333 88.3333 92.2882 88.3333 97.1667V114.833C88.3333 119.712 92.2882 123.667 97.1667 123.667H114.833C119.712 123.667 123.667 119.712 123.667 114.833V97.1667C123.667 92.2882 119.712 88.3333 114.833 88.3333ZM123.667 309.167C123.667 304.288 119.712 300.333 114.833 300.333H97.1667C92.2882 300.333 88.3333 304.288 88.3333 309.167V326.833C88.3333 331.712 92.2882 335.667 97.1667 335.667H114.833C119.712 335.667 123.667 331.712 123.667 326.833V309.167ZM326.833 88.3333H309.167C304.288 88.3333 300.333 92.2882 300.333 97.1667V114.833C300.333 119.712 304.288 123.667 309.167 123.667H326.833C331.712 123.667 335.667 119.712 335.667 114.833V97.1667C335.667 92.2882 331.712 88.3333 326.833 88.3333ZM229.667 70.6667V88.3333H220.833C215.955 88.3333 212 92.2882 212 97.1667C212 102.045 215.955 106 220.833 106H238.5C243.379 106 247.333 102.045 247.333 97.1667V61.8333C247.333 56.9548 243.379 53 238.5 53H185.5C180.621 53 176.667 56.9548 176.667 61.8333V97.1667C176.667 102.045 180.621 106 185.5 106C190.379 106 194.333 102.045 194.333 97.1667V70.6667H229.667ZM243.571 139.734C233.761 135.404 222.911 133 211.5 133C200.332 133 189.702 135.303 180.059 139.459C177.994 137.842 176.667 135.326 176.667 132.5C176.667 127.621 180.621 123.667 185.5 123.667H238.5C243.379 123.667 247.333 127.621 247.333 132.5C247.333 135.492 245.846 138.136 243.571 139.734ZM284.266 180.429C285.864 178.154 288.508 176.667 291.5 176.667C296.379 176.667 300.333 180.621 300.333 185.5V220.833C300.333 225.712 296.379 229.667 291.5 229.667C290.707 229.667 289.938 229.562 289.207 229.366C290.382 223.93 291 218.287 291 212.5C291 201.089 288.596 190.239 284.266 180.429ZM265 271.305C271.383 265.495 276.817 258.659 281.04 251.058C282.065 252.5 282.667 254.263 282.667 256.167V282.667H326.833C331.712 282.667 335.667 286.621 335.667 291.5C335.667 296.379 331.712 300.333 326.833 300.333H273.833C268.955 300.333 265 296.379 265 291.5V271.305ZM194.333 362.167V318H238.5C243.379 318 247.333 314.045 247.333 309.167C247.333 304.288 243.379 300.333 238.5 300.333H185.5C180.621 300.333 176.667 304.288 176.667 309.167V362.167C176.667 367.045 180.621 371 185.5 371C190.379 371 194.333 367.045 194.333 362.167ZM97.1667 194.333H106V238.5C106 243.379 109.955 247.333 114.833 247.333C119.712 247.333 123.667 243.379 123.667 238.5V185.5C123.667 180.621 119.712 176.667 114.833 176.667H97.1667C92.2882 176.667 88.3333 180.621 88.3333 185.5C88.3333 190.379 92.2882 194.333 97.1667 194.333ZM353.333 238.5V247.333H309.167C304.288 247.333 300.333 251.288 300.333 256.167C300.333 261.045 304.288 265 309.167 265H362.167C367.045 265 371 261.045 371 256.167V238.5C371 233.621 367.045 229.667 362.167 229.667C357.288 229.667 353.333 233.621 353.333 238.5ZM353.333 291.5V353.333H291.5C286.621 353.333 282.667 357.288 282.667 362.167C282.667 367.045 286.621 371 291.5 371H362.167C367.045 371 371 367.045 371 362.167V291.5C371 286.621 367.045 282.667 362.167 282.667C357.288 282.667 353.333 286.621 353.333 291.5ZM265 326.833C265 331.712 268.955 335.667 273.833 335.667H326.833C331.712 335.667 335.667 331.712 335.667 326.833C335.667 321.955 331.712 318 326.833 318H273.833C268.955 318 265 321.955 265 326.833ZM79.5 229.667H70.6667V185.5C70.6667 180.621 66.7118 176.667 61.8333 176.667C56.9548 176.667 53 180.621 53 185.5V238.5C53 243.379 56.9548 247.333 61.8333 247.333H79.5C84.3785 247.333 88.3333 243.379 88.3333 238.5C88.3333 233.621 84.3785 229.667 79.5 229.667Z" fill="white"/>
<path d="M225.764 221.087C225.232 221.874 224.629 222.628 223.952 223.339C217.375 230.255 206.438 230.529 199.522 223.952C192.606 217.375 192.331 206.438 198.908 199.522C205.485 192.606 216.423 192.331 223.339 198.908C224.05 199.585 224.691 200.307 225.261 201.066" stroke="white" stroke-width="7.5" stroke-linecap="round"/>
<path d="M162 212H172" stroke="white" stroke-width="7.5" stroke-linecap="round"/>
<path d="M252 212H262" stroke="white" stroke-width="7.5" stroke-linecap="round"/>
<path d="M212 172V162" stroke="white" stroke-width="7.5" stroke-linecap="round"/>
<path d="M212 262V252" stroke="white" stroke-width="7.5" stroke-linecap="round"/>
<path d="M192 177.351C197.883 173.947 204.715 172 212 172C234.092 172 252 189.908 252 212C252 234.091 234.092 252 212 252C189.909 252 172 234.091 172 212C172 204.714 173.948 197.883 177.351 192" stroke="white" stroke-width="7.5" stroke-linecap="round"/>
</svg>
