<svg width="66" height="75" viewBox="0 0 66 75" fill="none" xmlns="http://www.w3.org/2000/svg">
<path d="M32.59 35.3834C29.7966 35.3834 27.9343 37.2457 27.9343 40.0391C27.9343 41.9014 29.331 43.2981 30.7277 43.7637L29.331 50.2817H35.3834L33.9867 43.7637C35.849 43.2981 36.7801 41.9014 36.7801 40.0391C37.2457 37.2457 35.3834 35.3834 32.59 35.3834ZM33.0556 15.3639C29.7966 15.3639 26.5376 17.6917 26.5376 20.9507V27.9343H39.108V20.9507C38.6424 17.6917 36.3146 15.3639 33.0556 15.3639ZM32.59 0L0 13.9671V27.9343C0.465571 48.4194 13.5016 66.5767 32.59 74.0258C51.6784 66.5767 64.7144 48.4194 65.18 27.9343V13.9671L32.59 0ZM51.2128 51.2129C51.2128 54.0063 49.3506 55.8686 46.5571 55.8686H18.6229C15.8294 55.8686 13.9671 54.0063 13.9671 51.2129V32.59C13.9671 29.7966 15.8294 27.9343 18.6229 27.9343H20.0196V20.9507C20.4851 14.4327 26.072 9.31143 32.59 9.31143C39.108 9.31143 44.6949 14.4327 45.1604 20.9507V27.9343H46.5571C49.3506 27.9343 51.2128 29.7966 51.2128 32.59V51.2129Z" fill="black"/>
</svg>
