<svg width="318" height="318" viewBox="0 0 318 318" fill="none" xmlns="http://www.w3.org/2000/svg">
<path fill-rule="evenodd" clip-rule="evenodd" d="M17.6667 39.119C17.6667 27.2712 27.2712 17.6667 39.119 17.6667H66.881C78.7288 17.6667 88.3333 27.2712 88.3333 39.119V66.881C88.3333 78.7288 78.7288 88.3333 66.881 88.3333H39.119C27.2712 88.3333 17.6667 78.7288 17.6667 66.881V39.119ZM66.881 0H39.119C17.5142 0 0 17.5142 0 39.119V66.881C0 88.4858 17.5142 106 39.119 106H66.881C88.4858 106 106 88.4858 106 66.881V39.119C106 17.5142 88.4858 0 66.881 0ZM106 251.119C106 229.514 88.4858 212 66.881 212H39.119C17.5142 212 0 229.514 0 251.119V278.881C0 300.486 17.5142 318 39.119 318H66.881C88.4858 318 106 300.486 106 278.881V251.119ZM17.6667 251.119C17.6667 239.271 27.2712 229.667 39.119 229.667H66.881C78.7288 229.667 88.3333 239.271 88.3333 251.119V278.881C88.3333 290.729 78.7288 300.333 66.881 300.333H39.119C27.2712 300.333 17.6667 290.729 17.6667 278.881V251.119ZM278.881 0H251.119C229.514 0 212 17.5142 212 39.119V66.881C212 88.4858 229.514 106 251.119 106H278.881C300.486 106 318 88.4858 318 66.881V39.119C318 17.5142 300.486 0 278.881 0ZM229.667 39.119C229.667 27.2712 239.271 17.6667 251.119 17.6667H278.881C290.729 17.6667 300.333 27.2712 300.333 39.119V66.881C300.333 78.7288 290.729 88.3333 278.881 88.3333H251.119C239.271 88.3333 229.667 78.7288 229.667 66.881V39.119ZM176.667 291.5V300.333H167.833C162.955 300.333 159 304.288 159 309.167C159 314.045 162.955 318 167.833 318H203.167C208.045 318 212 314.045 212 309.167C212 304.288 208.045 300.333 203.167 300.333H194.333V291.5C194.333 286.621 190.379 282.667 185.5 282.667C180.621 282.667 176.667 286.621 176.667 291.5ZM282.667 167.833V159H309.167C314.045 159 318 155.045 318 150.167V132.5C318 127.621 314.045 123.667 309.167 123.667C304.288 123.667 300.333 127.621 300.333 132.5V141.333H282.667V132.5C282.667 127.621 278.712 123.667 273.833 123.667C268.955 123.667 265 127.621 265 132.5V167.833C265 172.712 268.955 176.667 273.833 176.667C278.712 176.667 282.667 172.712 282.667 167.833ZM61.8333 35.3333H44.1667C39.2882 35.3333 35.3333 39.2882 35.3333 44.1667V61.8333C35.3333 66.7118 39.2882 70.6667 44.1667 70.6667H61.8333C66.7118 70.6667 70.6667 66.7118 70.6667 61.8333V44.1667C70.6667 39.2882 66.7118 35.3333 61.8333 35.3333ZM70.6667 256.167C70.6667 251.288 66.7118 247.333 61.8333 247.333H44.1667C39.2882 247.333 35.3333 251.288 35.3333 256.167V273.833C35.3333 278.712 39.2882 282.667 44.1667 282.667H61.8333C66.7118 282.667 70.6667 278.712 70.6667 273.833V256.167ZM273.833 35.3333H256.167C251.288 35.3333 247.333 39.2882 247.333 44.1667V61.8333C247.333 66.7118 251.288 70.6667 256.167 70.6667H273.833C278.712 70.6667 282.667 66.7118 282.667 61.8333V44.1667C282.667 39.2882 278.712 35.3333 273.833 35.3333ZM176.667 17.6667V35.3333H167.833C162.955 35.3333 159 39.2882 159 44.1667C159 49.0452 162.955 53 167.833 53H185.5C190.379 53 194.333 49.0452 194.333 44.1667V8.83333C194.333 3.95482 190.379 0 185.5 0H132.5C127.621 0 123.667 3.95482 123.667 8.83333V44.1667C123.667 49.0452 127.621 53 132.5 53C137.379 53 141.333 49.0452 141.333 44.1667V17.6667H176.667ZM190.571 86.7339C180.761 82.4043 169.911 80 158.5 80C147.332 80 136.702 82.3027 127.059 86.4593C124.994 84.8424 123.667 82.3262 123.667 79.5C123.667 74.6215 127.621 70.6667 132.5 70.6667H185.5C190.379 70.6667 194.333 74.6215 194.333 79.5C194.333 82.4917 192.846 85.136 190.571 86.7339ZM231.266 127.429C232.864 125.154 235.508 123.667 238.5 123.667C243.379 123.667 247.333 127.621 247.333 132.5V167.833C247.333 172.712 243.379 176.667 238.5 176.667C237.707 176.667 236.938 176.562 236.207 176.366C237.382 170.93 238 165.287 238 159.5C238 148.089 235.596 137.239 231.266 127.429ZM212 218.305C218.383 212.495 223.817 205.659 228.04 198.058C229.065 199.5 229.667 201.263 229.667 203.167V229.667H273.833C278.712 229.667 282.667 233.621 282.667 238.5C282.667 243.379 278.712 247.333 273.833 247.333H220.833C215.955 247.333 212 243.379 212 238.5V218.305ZM141.333 309.167V265H185.5C190.379 265 194.333 261.045 194.333 256.167C194.333 251.288 190.379 247.333 185.5 247.333H132.5C127.621 247.333 123.667 251.288 123.667 256.167V309.167C123.667 314.045 127.621 318 132.5 318C137.379 318 141.333 314.045 141.333 309.167ZM44.1667 141.333H53V185.5C53 190.379 56.9548 194.333 61.8333 194.333C66.7118 194.333 70.6667 190.379 70.6667 185.5V132.5C70.6667 127.621 66.7118 123.667 61.8333 123.667H44.1667C39.2882 123.667 35.3333 127.621 35.3333 132.5C35.3333 137.379 39.2882 141.333 44.1667 141.333ZM300.333 185.5V194.333H256.167C251.288 194.333 247.333 198.288 247.333 203.167C247.333 208.045 251.288 212 256.167 212H309.167C314.045 212 318 208.045 318 203.167V185.5C318 180.621 314.045 176.667 309.167 176.667C304.288 176.667 300.333 180.621 300.333 185.5ZM300.333 238.5V300.333H238.5C233.621 300.333 229.667 304.288 229.667 309.167C229.667 314.045 233.621 318 238.5 318H309.167C314.045 318 318 314.045 318 309.167V238.5C318 233.621 314.045 229.667 309.167 229.667C304.288 229.667 300.333 233.621 300.333 238.5ZM212 273.833C212 278.712 215.955 282.667 220.833 282.667H273.833C278.712 282.667 282.667 278.712 282.667 273.833C282.667 268.955 278.712 265 273.833 265H220.833C215.955 265 212 268.955 212 273.833ZM26.5 176.667H17.6667V132.5C17.6667 127.621 13.7118 123.667 8.83333 123.667C3.95482 123.667 0 127.621 0 132.5V185.5C0 190.379 3.95482 194.333 8.83333 194.333H26.5C31.3785 194.333 35.3333 190.379 35.3333 185.5C35.3333 180.621 31.3785 176.667 26.5 176.667Z" fill="white"/>
<path d="M172.764 168.087C172.232 168.874 171.629 169.628 170.952 170.339C164.375 177.255 153.438 177.529 146.522 170.952C139.606 164.375 139.331 153.438 145.908 146.522C152.485 139.606 163.423 139.331 170.339 145.908C171.05 146.585 171.691 147.307 172.261 148.066" stroke="white" stroke-width="7.5" stroke-linecap="round"/>
<path d="M109 159H119" stroke="white" stroke-width="7.5" stroke-linecap="round"/>
<path d="M199 159H209" stroke="white" stroke-width="7.5" stroke-linecap="round"/>
<path d="M159 119V109" stroke="white" stroke-width="7.5" stroke-linecap="round"/>
<path d="M159 209V199" stroke="white" stroke-width="7.5" stroke-linecap="round"/>
<path d="M139 124.351C144.883 120.947 151.715 119 159 119C181.092 119 199 136.908 199 159C199 181.091 181.092 199 159 199C136.909 199 119 181.091 119 159C119 151.714 120.948 144.883 124.351 139" stroke="white" stroke-width="7.5" stroke-linecap="round"/>
</svg>
