<svg width="66" height="66" viewBox="0 0 66 66" fill="none" xmlns="http://www.w3.org/2000/svg">
<rect width="65.1512" height="65.1513" rx="25" fill="black"/>
<path fill-rule="evenodd" clip-rule="evenodd" d="M11.049 14.3537C11.049 12.5286 12.5286 11.0491 14.3536 11.0491H18.6302C20.4553 11.0491 21.9348 12.5286 21.9348 14.3537V18.6302C21.9348 20.4553 20.4553 21.9348 18.6302 21.9348H14.3536C12.5286 21.9348 11.049 20.4553 11.049 18.6302V14.3537ZM18.6302 8.32764H14.3536C11.0256 8.32764 8.32761 11.0256 8.32761 14.3537V18.6302C8.32761 21.9583 11.0256 24.6563 14.3536 24.6563H18.6302C21.9583 24.6563 24.6562 21.9583 24.6562 18.6302V14.3537C24.6562 11.0256 21.9583 8.32764 18.6302 8.32764ZM24.6562 47.011C24.6562 43.6829 21.9583 40.9849 18.6302 40.9849H14.3536C11.0256 40.9849 8.32761 43.6829 8.32761 47.011V51.2875C8.32761 54.6156 11.0256 57.3136 14.3536 57.3136H18.6302C21.9583 57.3136 24.6562 54.6156 24.6562 51.2875V47.011ZM11.049 47.011C11.049 45.1859 12.5286 43.7064 14.3536 43.7064H18.6302C20.4553 43.7064 21.9348 45.1859 21.9348 47.011V51.2875C21.9348 53.1126 20.4553 54.5921 18.6302 54.5921H14.3536C12.5286 54.5921 11.049 53.1126 11.049 51.2875V47.011ZM51.2874 8.32764H47.0109C43.6828 8.32764 40.9849 11.0256 40.9849 14.3537V18.6302C40.9849 21.9583 43.6828 24.6563 47.0109 24.6563H51.2874C54.6155 24.6563 57.3135 21.9583 57.3135 18.6302V14.3537C57.3135 11.0256 54.6155 8.32764 51.2874 8.32764ZM43.7063 14.3537C43.7063 12.5286 45.1858 11.0491 47.0109 11.0491H51.2874C53.1125 11.0491 54.592 12.5286 54.592 14.3537V18.6302C54.592 20.4553 53.1125 21.9348 51.2874 21.9348H47.0109C45.1858 21.9348 43.7063 20.4553 43.7063 18.6302V14.3537ZM35.542 53.2314V54.5921H34.1813C33.4298 54.5921 32.8205 55.2014 32.8205 55.9529C32.8205 56.7044 33.4298 57.3136 34.1813 57.3136H39.6241C40.3756 57.3136 40.9849 56.7044 40.9849 55.9529C40.9849 55.2014 40.3756 54.5921 39.6241 54.5921H38.2634V53.2314C38.2634 52.4799 37.6542 51.8707 36.9027 51.8707C36.1512 51.8707 35.542 52.4799 35.542 53.2314ZM51.8706 34.1813V32.8206H55.9528C56.7043 32.8206 57.3135 32.2114 57.3135 31.4599V28.7384C57.3135 27.9869 56.7043 27.3777 55.9528 27.3777C55.2013 27.3777 54.592 27.9869 54.592 28.7384V30.0992H51.8706V28.7384C51.8706 27.9869 51.2614 27.3777 50.5099 27.3777C49.7584 27.3777 49.1492 27.9869 49.1492 28.7384V34.1813C49.1492 34.9328 49.7584 35.5421 50.5099 35.5421C51.2614 35.5421 51.8706 34.9328 51.8706 34.1813ZM17.8526 13.7705H15.1312C14.3797 13.7705 13.7705 14.3797 13.7705 15.1312V17.8527C13.7705 18.6042 14.3797 19.2134 15.1312 19.2134H17.8526C18.6041 19.2134 19.2134 18.6042 19.2134 17.8527V15.1312C19.2134 14.3797 18.6041 13.7705 17.8526 13.7705ZM19.2134 47.7885C19.2134 47.037 18.6041 46.4278 17.8526 46.4278H15.1312C14.3797 46.4278 13.7705 47.037 13.7705 47.7885V50.51C13.7705 51.2615 14.3797 51.8707 15.1312 51.8707H17.8526C18.6041 51.8707 19.2134 51.2615 19.2134 50.51V47.7885ZM50.5099 13.7705H47.7885C47.0369 13.7705 46.4277 14.3797 46.4277 15.1312V17.8527C46.4277 18.6042 47.0369 19.2134 47.7885 19.2134H50.5099C51.2614 19.2134 51.8706 18.6042 51.8706 17.8527V15.1312C51.8706 14.3797 51.2614 13.7705 50.5099 13.7705ZM35.542 11.0491V13.7705H34.1813C33.4298 13.7705 32.8205 14.3797 32.8205 15.1312C32.8205 15.8827 33.4298 16.492 34.1813 16.492H36.9027C37.6542 16.492 38.2634 15.8827 38.2634 15.1312V9.68836C38.2634 8.93685 37.6542 8.32764 36.9027 8.32764H28.7384C27.9869 8.32764 27.3777 8.93685 27.3777 9.68836V15.1312C27.3777 15.8827 27.9869 16.492 28.7384 16.492C29.4899 16.492 30.0991 15.8827 30.0991 15.1312V11.0491H35.542ZM37.6838 21.6885C36.1727 21.0216 34.5014 20.6512 32.7435 20.6512C31.0232 20.6512 29.3858 21.0059 27.9003 21.6462C27.5821 21.3971 27.3777 21.0095 27.3777 20.5741C27.3777 19.8226 27.9869 19.2134 28.7384 19.2134H36.9027C37.6542 19.2134 38.2634 19.8226 38.2634 20.5741C38.2634 21.035 38.0343 21.4424 37.6838 21.6885ZM43.9527 27.9574C44.1988 27.6068 44.6062 27.3777 45.067 27.3777C45.8185 27.3777 46.4277 27.9869 46.4277 28.7384V34.1813C46.4277 34.9328 45.8185 35.5421 45.067 35.5421C44.9449 35.5421 44.8265 35.526 44.7139 35.4958C44.8947 34.6584 44.99 33.7892 44.99 32.8977C44.99 31.1398 44.6196 29.4685 43.9527 27.9574ZM40.9849 41.9563C41.9682 41.0612 42.8052 40.0081 43.4558 38.8373C43.6135 39.0594 43.7063 39.331 43.7063 39.6242V43.7064H50.5099C51.2614 43.7064 51.8706 44.3156 51.8706 45.0671C51.8706 45.8186 51.2614 46.4278 50.5099 46.4278H42.3456C41.5941 46.4278 40.9849 45.8186 40.9849 45.0671V41.9563ZM30.0991 55.9529V49.1493H36.9027C37.6542 49.1493 38.2634 48.54 38.2634 47.7885C38.2634 47.037 37.6542 46.4278 36.9027 46.4278H28.7384C27.9869 46.4278 27.3777 47.037 27.3777 47.7885V55.9529C27.3777 56.7044 27.9869 57.3136 28.7384 57.3136C29.4899 57.3136 30.0991 56.7044 30.0991 55.9529ZM15.1312 30.0992H16.4919V36.9028C16.4919 37.6543 17.1011 38.2635 17.8526 38.2635C18.6041 38.2635 19.2134 37.6543 19.2134 36.9028V28.7384C19.2134 27.9869 18.6041 27.3777 17.8526 27.3777H15.1312C14.3797 27.3777 13.7705 27.9869 13.7705 28.7384C13.7705 29.49 14.3797 30.0992 15.1312 30.0992ZM54.592 36.9028V38.2635H47.7885C47.0369 38.2635 46.4277 38.8727 46.4277 39.6242C46.4277 40.3757 47.0369 40.9849 47.7885 40.9849H55.9528C56.7043 40.9849 57.3135 40.3757 57.3135 39.6242V36.9028C57.3135 36.1513 56.7043 35.5421 55.9528 35.5421C55.2013 35.5421 54.592 36.1513 54.592 36.9028ZM54.592 45.0671V54.5921H45.067C44.3155 54.5921 43.7063 55.2014 43.7063 55.9529C43.7063 56.7044 44.3155 57.3136 45.067 57.3136H55.9528C56.7043 57.3136 57.3135 56.7044 57.3135 55.9529V45.0671C57.3135 44.3156 56.7043 43.7064 55.9528 43.7064C55.2013 43.7064 54.592 44.3156 54.592 45.0671ZM40.9849 50.51C40.9849 51.2615 41.5941 51.8707 42.3456 51.8707H50.5099C51.2614 51.8707 51.8706 51.2615 51.8706 50.51C51.8706 49.7585 51.2614 49.1493 50.5099 49.1493H42.3456C41.5941 49.1493 40.9849 49.7585 40.9849 50.51ZM12.4098 35.5421H11.049V28.7384C11.049 27.9869 10.4398 27.3777 9.68833 27.3777C8.93682 27.3777 8.32761 27.9869 8.32761 28.7384V36.9028C8.32761 37.6543 8.93682 38.2635 9.68833 38.2635H12.4098C13.1613 38.2635 13.7705 37.6543 13.7705 36.9028C13.7705 36.1513 13.1613 35.5421 12.4098 35.5421Z" fill="white"/>
<path d="M35.4376 34.5382C35.3354 34.6896 35.2193 34.8345 35.0892 34.9713C33.8243 36.3014 31.7207 36.3542 30.3906 35.0893C29.0605 33.8243 29.0076 31.7207 30.2726 30.3906C31.5375 29.0605 33.6411 29.0077 34.9712 30.2726C35.108 30.4027 35.2312 30.5416 35.3409 30.6877" stroke="white" stroke-width="2" stroke-linecap="round"/>
<path d="M23.174 32.7905H25.0973" stroke="white" stroke-width="2" stroke-linecap="round"/>
<path d="M40.4836 32.7905H42.4069" stroke="white" stroke-width="2" stroke-linecap="round"/>
<path d="M32.7904 25.0975V23.1742" stroke="white" stroke-width="2" stroke-linecap="round"/>
<path d="M32.7904 42.407V40.4838" stroke="white" stroke-width="2" stroke-linecap="round"/>
<path d="M28.9439 26.1266C30.0755 25.472 31.3893 25.0974 32.7905 25.0974C37.0393 25.0974 40.4836 28.5417 40.4836 32.7905C40.4836 37.0393 37.0393 40.4836 32.7905 40.4836C28.5417 40.4836 25.0974 37.0393 25.0974 32.7905C25.0974 31.3893 25.472 30.0755 26.1266 28.944" stroke="white" stroke-width="2" stroke-linecap="round"/>
</svg>
