<svg width="30" height="35" viewBox="0 0 30 35" fill="none" xmlns="http://www.w3.org/2000/svg">
<path d="M15 16.2857C13.7143 16.2857 12.8571 17.1429 12.8571 18.4286C12.8571 19.2857 13.5 19.9286 14.1429 20.1429L13.5 23.1429H16.2857L15.6429 20.1429C16.5 19.9286 16.9286 19.2857 16.9286 18.4286C17.1429 17.1429 16.2857 16.2857 15 16.2857ZM15.2143 7.07143C13.7143 7.07143 12.2143 8.14286 12.2143 9.64286V12.8571H18V9.64286C17.7857 8.14286 16.7143 7.07143 15.2143 7.07143ZM15 0L0 6.42857V12.8571C0.214286 22.2857 6.21429 30.6429 15 34.0714C23.7857 30.6429 29.7857 22.2857 30 12.8571V6.42857L15 0ZM23.5714 23.5714C23.5714 24.8571 22.7143 25.7143 21.4286 25.7143H8.57143C7.28571 25.7143 6.42857 24.8571 6.42857 23.5714V15C6.42857 13.7143 7.28571 12.8571 8.57143 12.8571H9.21429V9.64286C9.42857 6.64286 12 4.28571 15 4.28571C18 4.28571 20.5714 6.64286 20.7857 9.64286V12.8571H21.4286C22.7143 12.8571 23.5714 13.7143 23.5714 15V23.5714Z" fill="#FFEFEF"/>
</svg>
